<svg xmlns="http://www.w3.org/2000/svg" version="1.1" xmlns:xlink="http://www.w3.org/1999/xlink" viewBox="0 0 200 200"><rect width="200" height="200" fill="url('#gradient')"></rect><defs><linearGradient id="gradient" gradientTransform="rotate(45 0.5 0.5)"><stop offset="0%" stop-color="#d7a588"></stop><stop offset="100%" stop-color="#9bd2b6"></stop></linearGradient></defs><g><g fill="#5c554a" transform="matrix(1.2074634112506069,0,0,1.2074634112506069,14.244404100855796,106.603574717087)" stroke="#cae9d9" stroke-width="0.2"><path d="M8.41-3.78L8.41-3.78Q8.41-4.53 7.88-4.95Q7.34-5.37 6.01-5.82Q4.67-6.27 3.82-6.69L3.82-6.69Q1.05-8.05 1.05-10.42L1.05-10.42Q1.05-11.60 1.74-12.50Q2.43-13.41 3.69-13.91Q4.95-14.41 6.52-14.41L6.52-14.41Q8.06-14.41 9.27-13.87Q10.49-13.32 11.16-12.31Q11.84-11.30 11.84-10L11.84-10L8.42-10Q8.42-10.87 7.89-11.35Q7.35-11.83 6.45-11.83L6.45-11.83Q5.53-11.83 5.00-11.42Q4.46-11.02 4.46-10.39L4.46-10.39Q4.46-9.84 5.05-9.40Q5.63-8.96 7.11-8.48Q8.58-8.01 9.53-7.46L9.53-7.46Q11.84-6.13 11.84-3.80L11.84-3.80Q11.84-1.93 10.43-0.87Q9.02 0.20 6.57 0.20L6.57 0.20Q4.84 0.20 3.44-0.42Q2.04-1.04 1.33-2.12Q0.63-3.20 0.63-4.61L0.63-4.61L4.06-4.61Q4.06-3.47 4.65-2.92Q5.24-2.38 6.57-2.38L6.57-2.38Q7.42-2.38 7.92-2.75Q8.41-3.12 8.41-3.78ZM22.55-8.30L22.55-5.66L17.02-5.66L17.02 0L13.59 0L13.59-14.22L23.11-14.22L23.11-11.57L17.02-11.57L17.02-8.30L22.55-8.30ZM38.33-8.57L38.33-6.03L32.94-6.03L32.94-2.64L39.31-2.64L39.31 0L29.51 0L29.51-14.22L39.33-14.22L39.33-11.57L32.94-11.57L32.94-8.57L38.33-8.57ZM39.95-5.36L39.95-5.36Q39.95-7.87 41.04-9.32Q42.12-10.76 44.06-10.76L44.06-10.76Q45.48-10.76 46.45-9.65L46.45-9.65L46.45-15L49.75-15L49.75 0L46.79 0L46.62-1.13Q45.61 0.20 44.04 0.20L44.04 0.20Q42.16 0.20 41.05-1.25Q39.95-2.70 39.95-5.36ZM43.25-5.76L43.24-5.16Q43.24-2.34 44.88-2.34L44.88-2.34Q45.98-2.34 46.45-3.26L46.45-3.26L46.45-7.29Q46.00-8.22 44.90-8.22L44.90-8.22Q43.38-8.22 43.25-5.76L43.25-5.76ZM67.32-14.22L67.32-11.57L63.06-11.57L63.06 0L59.63 0L59.63-11.57L55.44-11.57L55.44-14.22L67.32-14.22ZM71.84-15L71.84-9.43Q72.89-10.76 74.53-10.76L74.53-10.76Q76.28-10.76 77.17-9.73Q78.06-8.69 78.08-6.67L78.08-6.67L78.08 0L74.78 0L74.78-6.59Q74.78-7.43 74.43-7.83Q74.09-8.22 73.27-8.22L73.27-8.22Q72.26-8.22 71.84-7.58L71.84-7.58L71.84 0L68.54 0L68.54-15L71.84-15ZM85.02 0.20L85.02 0.20Q82.59 0.20 81.08-1.25Q79.58-2.71 79.58-5.03L79.58-5.03L79.58-5.30Q79.58-6.92 80.18-8.16Q80.78-9.40 81.93-10.08Q83.09-10.76 84.67-10.76L84.67-10.76Q86.89-10.76 88.18-9.38Q89.47-8.00 89.47-5.53L89.47-5.53L89.47-4.25L82.93-4.25Q83.11-3.36 83.70-2.85Q84.30-2.34 85.24-2.34L85.24-2.34Q86.81-2.34 87.69-3.44L87.69-3.44L89.19-1.66Q88.57-0.81 87.45-0.31Q86.32 0.20 85.02 0.20ZM84.65-8.22L84.65-8.22Q83.20-8.22 82.93-6.31L82.93-6.31L86.25-6.31L86.25-6.56Q86.27-7.35 85.85-7.79Q85.43-8.22 84.65-8.22ZM97.25-10.64L97.19-7.59L96.10-7.67Q94.55-7.67 94.11-6.69L94.11-6.69L94.11 0L90.82 0L90.82-10.57L93.91-10.57L94.01-9.21Q94.84-10.76 96.33-10.76L96.33-10.76Q96.86-10.76 97.25-10.64L97.25-10.64ZM107.32 0L104.03 0Q103.86-0.32 103.72-0.95L103.72-0.95Q102.81 0.20 101.18 0.20L101.18 0.20Q99.69 0.20 98.64-0.71Q97.60-1.61 97.60-2.98L97.60-2.98Q97.60-4.70 98.87-5.58Q100.14-6.46 102.56-6.46L102.56-6.46L103.57-6.46L103.57-7.01Q103.57-8.47 102.31-8.47L102.31-8.47Q101.14-8.47 101.14-7.31L101.14-7.31L97.85-7.31Q97.85-8.85 99.16-9.80Q100.46-10.76 102.48-10.76Q104.50-10.76 105.67-9.78Q106.85-8.79 106.88-7.07L106.88-7.07L106.88-2.39Q106.89-0.94 107.32-0.17L107.32-0.17L107.32 0ZM101.97-2.15L101.97-2.15Q102.59-2.15 102.99-2.41Q103.40-2.68 103.57-3.01L103.57-3.01L103.57-4.70L102.62-4.70Q100.90-4.70 100.90-3.15L100.90-3.15Q100.90-2.71 101.20-2.43Q101.50-2.15 101.97-2.15ZM118.51-5.36L118.51-5.21Q118.51-2.74 117.40-1.27Q116.29 0.20 114.40 0.20L114.40 0.20Q112.95 0.20 112.01-0.87L112.01-0.87L112.01 4.06L108.72 4.06L108.72-10.57L111.80-10.57L111.89-9.59Q112.84-10.76 114.38-10.76L114.38-10.76Q116.34-10.76 117.42-9.32Q118.51-7.88 118.51-5.36L118.51-5.36ZM115.21-5.06L115.21-5.41Q115.21-8.22 113.57-8.22L113.57-8.22Q112.40-8.22 112.01-7.38L112.01-7.38L112.01-3.22Q112.44-2.34 113.59-2.34L113.59-2.34Q115.17-2.34 115.21-5.06L115.21-5.06ZM123.43-10.57L123.43 0L120.13 0L120.13-10.57L123.43-10.57ZM119.93-13.29L119.93-13.29Q119.93-13.99 120.44-14.44Q120.95-14.89 121.76-14.89Q122.57-14.89 123.08-14.44Q123.58-13.99 123.58-13.29Q123.58-12.59 123.08-12.14Q122.57-11.69 121.76-11.69Q120.95-11.69 120.44-12.14Q119.93-12.59 119.93-13.29ZM130.99-2.97L130.99-2.97Q130.99-3.39 130.55-3.64Q130.11-3.90 128.88-4.17Q127.65-4.44 126.85-4.89Q126.04-5.33 125.63-5.97Q125.21-6.60 125.21-7.42L125.21-7.42Q125.21-8.88 126.41-9.82Q127.61-10.76 129.55-10.76L129.55-10.76Q131.64-10.76 132.91-9.81Q134.18-8.87 134.18-7.32L134.18-7.32L130.88-7.32Q130.88-8.59 129.54-8.59L129.54-8.59Q129.02-8.59 128.67-8.31Q128.32-8.02 128.32-7.59L128.32-7.59Q128.32-7.15 128.75-6.88Q129.18-6.60 130.12-6.43Q131.06-6.25 131.78-6.01L131.78-6.01Q134.16-5.19 134.16-3.07L134.16-3.07Q134.16-1.62 132.88-0.71Q131.59 0.20 129.55 0.20L129.55 0.20Q128.19 0.20 127.13-0.29Q126.06-0.78 125.47-1.62Q124.87-2.46 124.87-3.39L124.87-3.39L127.95-3.39Q127.97-2.66 128.44-2.32Q128.91-1.98 129.64-1.98L129.64-1.98Q130.31-1.98 130.65-2.26Q130.99-2.53 130.99-2.97ZM136.24-13.19L139.53-13.19L139.53-10.57L141.27-10.57L141.27-8.28L139.53-8.28L139.53-3.45Q139.53-2.85 139.75-2.62Q139.96-2.38 140.60-2.38L140.60-2.38Q141.08-2.38 141.42-2.44L141.42-2.44L141.42-0.09Q140.53 0.20 139.56 0.20L139.56 0.20Q137.86 0.20 137.05-0.61Q136.24-1.41 136.24-3.04L136.24-3.04L136.24-8.28L134.89-8.28L134.89-10.57L136.24-10.57L136.24-13.19Z"></path></g></g></svg>